<?xml version="1.0" standalone="no"?>
<!DOCTYPE svg PUBLIC "-//W3C//DTD SVG 20010904//EN"
 "http://www.w3.org/TR/2001/REC-SVG-20010904/DTD/svg10.dtd">
<svg version="1.0" xmlns="http://www.w3.org/2000/svg"
 width="2346.000000pt" height="972.000000pt" viewBox="0 0 2346.000000 972.000000"
 preserveAspectRatio="xMidYMid meet">

<g transform="translate(0.000000,972.000000) scale(0.100000,-0.100000)"
fill="#000000" stroke="none">
<path d="M2515 6746 c-316 -230 -311 -226 -530 -381 -213 -150 -298 -215 -291
-223 3 -2 38 -8 78 -12 185 -20 274 -33 286 -43 14 -11 12 -109 -5 -277 -3
-30 -6 -82 -7 -115 -1 -55 1 -60 19 -57 11 2 54 7 95 10 l75 7 -1 35 c-1 19
-6 51 -12 70 -5 19 -20 71 -32 115 -58 209 -61 191 24 187 91 -4 103 -11 111
-70 10 -67 41 -175 88 -302 54 -144 131 -270 228 -369 139 -141 259 -202 447
-226 257 -33 456 50 579 242 18 29 33 54 33 57 0 3 11 29 24 58 51 113 65 195
73 408 3 96 1 182 -6 225 -27 159 -64 309 -82 329 -25 28 -5 54 108 146 64 52
148 122 188 155 39 33 94 78 123 100 29 21 52 42 52 46 0 11 -191 19 -1270 54
l-155 5 -240 -174z"/>
<path d="M4477 5953 c-4 -3 -7 -14 -7 -23 0 -9 -6 -30 -14 -46 -8 -16 -28 -58
-45 -94 -100 -211 -246 -395 -452 -565 -85 -70 -249 -158 -379 -203 -277 -96
-531 -107 -955 -42 -171 25 -322 35 -565 35 -323 0 -434 -18 -534 -85 -54 -37
-62 -90 -13 -90 12 0 67 -12 122 -26 55 -14 110 -28 123 -31 12 -3 25 -9 28
-14 3 -5 12 -9 21 -9 35 0 293 -127 398 -197 123 -81 274 -212 358 -311 166
-195 261 -364 356 -632 23 -62 63 -226 76 -302 7 -44 19 -54 48 -40 12 6 76
34 142 62 116 50 487 231 590 288 126 70 201 113 216 125 9 6 25 41 37 77 12
36 43 130 70 210 27 80 61 186 77 235 15 50 32 104 37 120 16 49 59 207 67
245 4 19 13 51 19 70 6 19 15 58 21 85 6 28 17 79 25 115 37 163 47 215 70
360 33 202 53 356 66 510 6 69 13 132 14 141 4 20 -8 42 -17 32z"/>
<path d="M12793 5742 l-663 -2 0 -1490 0 -1489 348 -3 c191 -2 406 -1 477 2
l130 5 3 449 c1 291 6 454 13 462 7 9 108 13 412 17 399 4 436 7 582 44 74 19
191 59 228 78 16 8 33 15 39 15 14 0 91 55 162 115 144 121 259 339 303 575
20 102 22 320 4 405 -55 265 -176 461 -373 603 -179 130 -413 191 -798 207
-91 4 -174 8 -185 9 -11 0 -318 0 -682 -2z m827 -733 c128 -20 213 -68 261
-147 20 -32 23 -51 23 -142 1 -101 0 -107 -33 -165 -38 -68 -67 -95 -131 -127
-43 -22 -58 -23 -352 -26 l-307 -4 -7 25 c-3 14 -4 153 -1 309 l5 283 124 5
c159 6 336 2 418 -11z"/>
<path d="M15405 5742 c-80 -2 -122 -7 -127 -15 -10 -16 -10 -2938 0 -2955 7
-10 111 -12 488 -10 l479 3 0 1485 0 1485 -360 5 c-198 3 -414 4 -480 2z"/>
<path d="M19115 5740 l-270 -5 -2 -780 c-3 -807 -3 -808 -41 -757 -26 35 -81
121 -99 153 -10 19 -29 50 -43 69 -14 19 -30 44 -37 55 -18 30 -146 227 -213
330 -33 50 -63 96 -67 104 -3 8 -35 57 -70 109 -35 52 -63 96 -63 98 0 3 -17
30 -39 62 -33 49 -92 140 -126 193 -5 9 -30 50 -55 90 -24 41 -58 93 -75 115
-16 23 -47 69 -68 103 l-37 61 -458 -2 -457 -3 0 -1485 0 -1485 465 0 465 0 3
763 c2 631 4 762 16 762 10 0 106 -139 106 -154 0 -3 25 -41 55 -86 30 -45 55
-84 55 -86 0 -3 5 -10 11 -17 5 -7 41 -59 78 -117 37 -58 90 -139 117 -180 27
-41 53 -83 59 -93 5 -9 50 -79 100 -155 49 -75 117 -180 151 -232 33 -52 79
-122 100 -155 21 -33 41 -64 44 -70 3 -5 31 -49 62 -98 l58 -87 465 0 464 0 3
1098 c2 603 2 1273 0 1489 l-2 392 -193 3 c-105 2 -313 1 -462 -2z"/>
<path d="M20730 5740 l-305 -5 -5 -205 c-3 -113 -3 -781 0 -1485 l5 -1280
1229 -3 c677 -1 1234 2 1238 6 7 7 12 444 8 687 0 13 -91 15 -759 15 -632 0
-760 2 -770 14 -8 9 -11 79 -9 232 l3 219 625 5 625 5 3 338 2 337 -624 0
c-560 0 -624 2 -630 16 -10 27 -7 392 4 399 5 3 336 6 734 5 472 0 727 3 731
9 4 8 8 532 5 681 0 11 -1591 19 -2110 10z"/>
<path d="M6910 5725 c-11 -13 -64 -152 -77 -200 -2 -11 -9 -29 -14 -40 -5 -11
-22 -60 -39 -110 -17 -49 -35 -98 -40 -107 -6 -10 -10 -23 -10 -29 0 -6 -6
-25 -14 -42 -8 -18 -16 -41 -19 -52 -3 -11 -15 -45 -27 -75 -12 -30 -30 -80
-40 -110 -11 -30 -33 -93 -50 -140 -17 -47 -40 -112 -51 -145 -29 -86 -69
-197 -80 -220 -5 -11 -17 -47 -28 -80 -10 -33 -24 -71 -29 -85 -6 -14 -22 -56
-35 -95 -14 -38 -40 -110 -57 -160 -18 -49 -36 -99 -40 -110 -5 -11 -18 -47
-29 -80 -18 -56 -44 -127 -107 -300 -15 -38 -29 -81 -32 -95 -2 -14 -11 -34
-18 -45 -8 -11 -14 -29 -14 -41 0 -11 -3 -24 -7 -28 -7 -7 -19 -37 -57 -151
-26 -74 -97 -273 -122 -340 -9 -22 -18 -50 -21 -62 l-5 -23 471 0 471 0 15 33
c7 17 21 59 31 92 58 210 67 239 77 253 8 9 113 12 491 10 l481 -3 26 -80 c14
-44 34 -109 44 -145 10 -36 25 -86 33 -113 l14 -47 482 2 c474 3 481 3 480 23
-2 18 -42 133 -63 180 -5 11 -12 29 -14 40 -3 11 -20 58 -37 105 -17 47 -35
96 -40 110 -4 14 -22 63 -40 110 -17 47 -35 99 -39 115 -5 17 -14 44 -21 60
-23 56 -29 70 -49 130 -11 33 -34 98 -51 145 -63 174 -82 226 -95 265 -7 22
-25 72 -40 110 -15 39 -31 84 -36 100 -4 17 -14 48 -23 70 -36 98 -79 214 -96
265 -10 30 -29 80 -40 110 -12 30 -25 67 -27 83 -3 15 -9 30 -14 33 -5 3 -9
12 -9 21 0 8 -6 29 -14 46 -8 18 -24 59 -35 92 -10 33 -38 112 -61 175 -23 63
-46 126 -50 140 -5 14 -23 63 -40 110 -17 47 -45 125 -61 175 -17 49 -38 105
-47 125 l-17 35 -491 3 c-426 2 -493 0 -504 -13z m521 -980 c9 -36 32 -116 74
-255 8 -25 21 -72 30 -105 20 -70 33 -115 50 -170 7 -22 18 -60 25 -85 7 -25
19 -65 26 -90 69 -224 75 -252 63 -266 -10 -12 -59 -14 -303 -12 l-291 3 1 32
c1 18 9 56 18 85 29 95 88 302 97 338 7 33 18 71 55 195 8 28 19 68 24 91 5
22 13 51 18 65 6 13 15 44 22 69 10 38 25 94 47 170 6 22 31 -14 44 -65z"/>
<path d="M9407 5733 c-4 -3 -7 -674 -7 -1490 l0 -1483 1160 0 c767 0 1160 3
1160 10 0 6 0 178 1 383 l0 372 -666 5 c-577 4 -667 7 -675 20 -6 9 -10 424
-10 1090 0 591 0 1081 0 1088 0 9 -102 12 -478 12 -263 0 -482 -3 -485 -7z"/>
<path d="M3685 3035 c-61 -36 -344 -181 -480 -245 -176 -82 -160 -71 -162
-115 -19 -362 -57 -649 -118 -910 -53 -220 -78 -320 -100 -390 -47 -153 -31
-143 86 52 52 87 99 167 105 178 6 11 32 55 57 98 26 43 47 81 47 83 0 2 11
21 23 42 23 35 57 98 185 342 110 208 272 542 367 755 15 33 33 73 41 89 26
54 13 59 -51 21z"/>
<path d="M8425 1470 c-127 -27 -215 -140 -215 -278 0 -107 66 -222 149 -259
52 -24 224 -24 267 -1 73 40 132 126 125 184 -1 6 -27 9 -68 7 -38 -1 -76 -3
-85 -3 -11 0 -18 -8 -18 -19 0 -29 -47 -61 -90 -61 -31 0 -44 7 -69 35 -29 33
-31 41 -31 113 0 72 2 80 31 115 26 32 36 37 73 37 43 0 75 -22 89 -62 5 -15
19 -18 85 -18 43 0 81 3 85 6 9 9 -32 106 -56 132 -54 58 -180 91 -272 72z"/>
<path d="M11165 1470 c-77 -16 -144 -64 -182 -128 -26 -43 -28 -55 -27 -152 0
-97 2 -108 28 -149 68 -107 152 -142 301 -126 84 9 147 50 193 125 30 51 32
59 32 151 0 68 -5 106 -16 130 -24 49 -83 107 -130 128 -50 23 -145 32 -199
21z m137 -157 c56 -53 55 -182 -2 -243 -38 -41 -95 -42 -132 -2 -64 69 -62
188 4 248 44 41 85 40 130 -3z"/>
<path d="M15668 1470 c-98 -17 -165 -97 -156 -183 9 -80 59 -120 188 -153 77
-19 120 -40 120 -57 0 -27 -19 -38 -64 -39 -38 0 -53 4 -75 26 -24 23 -35 26
-98 26 -40 0 -74 -4 -77 -9 -9 -15 15 -74 43 -104 46 -50 85 -62 201 -61 121
0 164 15 204 67 28 36 43 108 32 151 -10 42 -71 92 -134 110 -31 10 -80 24
-109 32 -60 18 -74 41 -43 66 30 24 53 23 88 -7 26 -22 39 -25 105 -25 42 0
78 3 80 8 7 10 -25 75 -50 101 -41 44 -159 68 -255 51z"/>
<path d="M17590 1470 c-25 -4 -57 -14 -71 -22 -103 -55 -121 -203 -32 -266 29
-19 120 -52 147 -52 28 0 94 -31 101 -48 10 -26 -20 -46 -70 -45 -36 1 -51 7
-70 27 -22 23 -31 26 -95 26 -82 0 -93 -11 -66 -67 42 -88 144 -125 299 -109
57 7 72 13 110 46 76 67 86 157 24 227 -35 40 -50 47 -162 75 -44 11 -86 25
-92 30 -39 32 22 82 69 57 12 -6 27 -18 31 -25 6 -10 32 -14 92 -14 70 0 85 3
85 15 0 19 -27 74 -45 92 -45 44 -163 69 -255 53z"/>
<path d="M21075 1471 c-22 -4 -54 -15 -71 -24 -42 -22 -114 -96 -114 -117 0
-9 -5 -21 -12 -28 -6 -6 -14 -49 -16 -94 -4 -77 -2 -88 27 -150 48 -100 104
-136 226 -145 107 -7 155 7 215 63 48 45 88 128 68 140 -5 3 -41 7 -80 7 -71
2 -72 2 -91 -31 -24 -40 -45 -52 -92 -52 -55 0 -90 40 -99 110 -8 71 5 125 40
161 50 52 133 34 157 -33 5 -15 19 -18 81 -18 41 0 77 4 80 8 9 15 -15 86 -41
120 -48 64 -174 102 -278 83z"/>
<path d="M22529 1471 c-99 -20 -150 -71 -157 -156 -7 -91 33 -137 148 -170 30
-9 72 -21 94 -28 21 -6 45 -17 52 -25 20 -20 0 -52 -34 -53 -50 -2 -67 3 -93
27 -22 21 -34 24 -103 24 l-78 0 6 -31 c10 -52 43 -94 93 -120 41 -21 60 -24
152 -24 94 0 111 3 150 25 60 34 84 79 83 153 -1 33 -8 67 -17 81 -25 37 -112
75 -235 103 -54 12 -68 52 -25 71 36 17 44 15 81 -13 30 -23 42 -26 106 -23
l73 3 -3 30 c-4 34 -51 87 -96 109 -38 18 -148 27 -197 17z"/>
<path d="M5962 1462 c-9 -7 -12 -68 -10 -273 l3 -264 223 -3 223 -2 -3 62 -3
63 -135 5 -135 5 -3 34 c-2 20 2 37 10 43 7 4 55 8 107 7 107 -2 114 3 109 74
l-3 42 -110 5 -110 5 -3 29 c-2 16 2 32 10 37 7 5 65 9 130 9 l116 0 4 56 c1
30 -1 59 -6 65 -12 11 -396 12 -414 1z"/>
<path d="M6677 1463 c-4 -3 -7 -127 -7 -275 l0 -268 146 0 c146 0 226 11 255
36 8 8 20 14 25 14 20 0 72 107 83 171 9 54 8 79 -3 125 -29 121 -72 164 -192
189 -69 15 -295 21 -307 8z m270 -143 c59 -21 84 -140 43 -207 -35 -58 -128
-85 -150 -44 -14 28 -13 234 2 249 15 15 65 16 105 2z"/>
<path d="M7447 1463 c-4 -3 -7 -97 -7 -207 0 -190 2 -203 23 -241 12 -22 43
-53 67 -70 43 -29 49 -30 155 -30 135 0 155 5 210 56 58 54 66 95 63 319 l-3
175 -85 0 -85 0 -3 -190 c-2 -178 -4 -191 -24 -212 -27 -29 -86 -31 -119 -4
-23 19 -24 24 -27 208 -3 127 -8 190 -15 195 -15 10 -141 10 -150 1z"/>
<path d="M9161 1456 c-6 -7 -29 -64 -50 -127 -50 -144 -84 -239 -112 -309 -41
-106 -44 -100 55 -100 l85 0 9 33 8 32 87 3 88 3 14 -36 15 -35 85 0 c92 0 94
2 71 53 -19 46 -62 162 -85 232 -30 90 -78 222 -91 245 -9 17 -21 20 -89 20
-54 0 -82 -4 -90 -14z m105 -213 c3 -16 10 -39 14 -53 5 -14 11 -38 12 -55 3
-29 2 -30 -46 -33 l-48 -3 7 47 c3 26 10 56 15 68 5 11 11 29 14 39 8 26 25
21 32 -10z"/>
<path d="M9754 1457 c-3 -8 -4 -41 -2 -73 l3 -59 75 -5 75 -5 3 -198 2 -198
86 3 86 3 -1 185 c-1 102 2 190 7 197 4 7 37 13 77 15 l70 3 0 70 0 70 -238 3
c-194 2 -238 0 -243 -11z"/>
<path d="M10517 1463 c-4 -3 -7 -127 -7 -275 l0 -268 85 0 85 0 0 269 c0 236
-2 270 -16 275 -21 8 -139 8 -147 -1z"/>
<path d="M11787 1463 c-4 -3 -7 -127 -7 -275 l0 -269 86 3 86 3 1 119 c1 74 6
121 13 123 6 2 46 -53 89 -122 l78 -126 84 3 84 3 0 263 c0 144 -3 267 -6 272
-7 11 -124 14 -149 4 -13 -5 -16 -26 -16 -130 0 -104 -2 -124 -15 -124 -8 0
-15 4 -15 8 0 4 -36 63 -80 130 l-80 122 -73 0 c-41 0 -77 -3 -80 -7z"/>
<path d="M13140 1447 c-24 -12 -50 -33 -57 -47 -17 -34 -16 -112 2 -136 8 -10
15 -21 15 -24 0 -3 -22 -29 -50 -58 -49 -51 -50 -54 -50 -115 0 -55 4 -67 30
-99 17 -20 47 -42 67 -49 40 -13 186 -7 206 9 7 5 26 14 44 20 27 9 34 7 49
-9 14 -16 31 -19 111 -19 51 0 93 2 93 5 0 2 -22 25 -50 51 -27 25 -52 54 -55
64 -4 12 8 37 34 71 22 29 38 56 35 61 -10 15 -131 9 -144 -7 -17 -20 -54 -15
-58 8 -2 9 9 30 25 46 56 55 62 139 14 195 -48 57 -180 74 -261 33z m150 -87
c24 -24 24 -29 4 -58 -18 -26 -50 -28 -76 -5 -22 20 -23 46 -2 67 21 22 50 20
74 -4z m-43 -262 c18 -18 33 -35 33 -40 0 -10 -55 -38 -76 -38 -24 0 -54 29
-54 53 0 25 27 57 49 57 8 0 30 -14 48 -32z"/>
<path d="M14273 1462 c-9 -6 -1 -38 28 -122 23 -63 45 -128 49 -145 5 -16 28
-85 51 -152 l42 -123 92 0 91 0 22 68 c30 95 132 388 153 441 7 18 7 26 -3 32
-16 11 -139 11 -155 1 -12 -7 -36 -84 -54 -170 -4 -23 -13 -51 -19 -61 -5 -11
-10 -33 -10 -50 0 -33 -16 -49 -32 -33 -10 10 -60 183 -78 266 -4 21 -14 42
-21 47 -17 11 -140 12 -156 1z"/>
<path d="M15070 1463 c-1 -4 -1 -127 -1 -273 l0 -265 86 -3 85 -3 -2 273 -3
273 -82 3 c-46 2 -83 -1 -83 -5z"/>
<path d="M16405 1462 c-6 -4 -18 -32 -29 -62 -10 -30 -24 -69 -32 -87 -8 -17
-14 -36 -14 -42 0 -6 -4 -19 -10 -29 -9 -17 -73 -198 -91 -259 -5 -18 -14 -35
-20 -38 -24 -15 9 -25 85 -25 l82 0 9 33 10 32 88 3 88 3 14 -36 15 -35 86 0
c78 0 85 2 79 18 -4 9 -15 42 -26 72 -30 88 -55 160 -84 235 -15 39 -29 79
-32 90 -3 11 -11 34 -19 52 -8 17 -14 38 -14 47 0 8 -9 20 -19 26 -22 11 -151
14 -166 2z m100 -220 c9 -21 25 -90 28 -117 2 -17 -5 -20 -45 -23 -44 -3 -48
-1 -48 19 0 12 4 38 10 58 5 20 12 48 15 63 6 30 28 29 40 0z"/>
<path d="M18177 1464 c-4 -4 -7 -128 -7 -276 l0 -268 228 2 227 3 3 52 c4 70
-8 75 -154 72 -70 -1 -119 2 -125 8 -6 6 -9 26 -7 44 l3 34 113 3 113 3 -3 57
-3 57 -110 5 -110 5 0 35 0 35 133 3 133 3 -3 62 -3 62 -211 3 c-115 1 -213
-1 -217 -4z"/>
<path d="M18892 1462 c-9 -6 -12 -68 -10 -273 l3 -264 85 0 85 0 3 93 3 92 42
0 c23 0 51 -3 63 -6 34 -9 54 -55 54 -123 l0 -61 90 0 c82 0 107 8 80 25 -5 3
-10 38 -10 76 0 74 -19 129 -45 129 -27 0 -25 19 7 56 30 34 33 43 33 105 0
60 -3 71 -28 97 -15 16 -44 34 -65 41 -45 15 -372 26 -390 13z m305 -144 c27
-25 29 -45 6 -70 -12 -14 -31 -18 -80 -18 -43 0 -63 4 -64 13 -2 23 3 82 8 90
2 4 27 7 55 7 39 0 57 -5 75 -22z"/>
<path d="M19634 1457 c-2 -7 9 -51 26 -98 18 -46 35 -97 40 -114 10 -35 15
-51 69 -205 l40 -115 89 -3 89 -3 11 28 c6 15 25 69 41 118 35 104 51 152 61
180 52 139 71 198 66 210 -4 11 -23 15 -75 15 -86 0 -101 -6 -101 -37 0 -13
-5 -33 -10 -44 -6 -10 -15 -38 -20 -61 -27 -129 -54 -207 -67 -194 -4 3 -24
74 -45 158 -22 84 -44 158 -50 165 -15 18 -157 18 -164 0z"/>
<path d="M20443 1464 c-10 -4 -13 -69 -13 -275 l0 -269 85 0 85 0 -2 273 -3
272 -70 2 c-38 1 -76 -1 -82 -3z"/>
<path d="M21675 1464 c-6 -2 -9 -101 -8 -271 l2 -268 221 -3 220 -2 0 59 c0
46 -4 60 -17 65 -10 4 -65 7 -123 6 -58 -1 -110 -1 -116 -1 -16 1 -23 58 -10
76 8 11 38 15 111 17 l100 3 0 55 0 55 -108 3 -108 3 3 37 3 37 128 3 c73 1
127 7 128 12 3 45 1 99 -5 109 -5 8 -68 11 -209 10 -111 0 -206 -2 -212 -5z"/>
<path d="M2787 1253 c-4 -3 -7 -11 -7 -17 0 -6 5 -5 12 2 6 6 9 14 7 17 -3 3
-9 2 -12 -2z"/>
</g>
</svg>
